<svg xmlns="http://www.w3.org/2000/svg" width="1600" height="900" viewBox="0 0 1600 900" role="img" aria-label="kaddy section cover placeholder">
  <defs>
    <linearGradient id="sky" x1="0" y1="0" x2="0" y2="1">
      <stop offset="0" stop-color="#0f2b33"/>
      <stop offset="0.62" stop-color="#134e4a"/>
      <stop offset="1" stop-color="#115e59"/>
    </linearGradient>
  </defs>
  <rect width="1600" height="900" fill="url(#sky)"/>
  <!-- sun -->
  <circle cx="1180" cy="270" r="110" fill="#fca5a5" opacity="0.55"/>
  <circle cx="1180" cy="270" r="82" fill="#fecaca" opacity="0.5"/>
  <!-- dune fairway lines (ligne claire) -->
  <path d="M0 640 Q 400 560 820 620 T 1600 590" fill="none" stroke="#5eead4" stroke-width="4" opacity="0.55"/>
  <path d="M0 720 Q 460 640 900 700 T 1600 670" fill="none" stroke="#5eead4" stroke-width="4" opacity="0.4"/>
  <path d="M0 800 Q 520 730 980 780 T 1600 760" fill="none" stroke="#5eead4" stroke-width="4" opacity="0.25"/>
  <!-- green + hole -->
  <ellipse cx="1150" cy="655" rx="200" ry="34" fill="#0d3b3b" stroke="#5eead4" stroke-width="4"/>
  <ellipse cx="1210" cy="655" rx="14" ry="6" fill="#0a1014" stroke="#5eead4" stroke-width="3"/>
  <!-- flagpole + pennant -->
  <line x1="1210" y1="655" x2="1210" y2="360" stroke="#e7e5e4" stroke-width="6"/>
  <path d="M1210 360 L1330 392 L1210 424 Z" fill="#f87171" stroke="#e7e5e4" stroke-width="4"/>
  <!-- golf bag silhouette (right of centre, left third stays calm) -->
  <g stroke="#e7e5e4" stroke-width="6" fill="#0d3b3b">
    <rect x="905" y="480" width="92" height="180" rx="26"/>
    <line x1="925" y1="480" x2="905" y2="410"/>
    <line x1="951" y1="480" x2="951" y2="398"/>
    <line x1="977" y1="480" x2="997" y2="416"/>
    <circle cx="905" cy="402" r="10" fill="#5eead4"/>
    <circle cx="951" cy="390" r="10" fill="#5eead4"/>
    <circle cx="997" cy="408" r="10" fill="#5eead4"/>
  </g>
  <!-- pending note (small, bottom-centre-right) -->
  <text x="1150" y="852" font-family="ui-monospace, SFMono-Regular, Menlo, monospace" font-size="26" fill="#99f6e4" opacity="0.7" text-anchor="middle">kaddy · cover art pending — see image-prompts.md</text>
</svg>
